<?xml version="1.0" standalone="no"?>
<!DOCTYPE svg PUBLIC "-//W3C//DTD SVG 20010904//EN"
 "http://www.w3.org/TR/2001/REC-SVG-20010904/DTD/svg10.dtd">
<svg version="1.0" xmlns="http://www.w3.org/2000/svg"
 width="278.000000pt" height="278.000000pt" viewBox="0 0 278.000000 278.000000"
 preserveAspectRatio="xMidYMid meet">
<metadata>
Created by potrace 1.11, written by Peter Selinger 2001-2013
</metadata>
<g transform="translate(0.000000,278.000000) scale(0.100000,-0.100000)"
fill="#000000" stroke="none">
<path d="M0 1550 l0 -1230 413 0 413 0 -2 -62 c0 -35 3 -68 7 -73 4 -6 40 -10
78 -10 l71 1 0 -86 0 -87 245 0 245 0 0 159 0 159 83 -3 82 -3 0 -65 c0 -36 3
-68 8 -71 4 -3 44 -5 88 -3 l79 3 0 -88 0 -88 238 0 237 0 0 245 0 246 85 1
85 0 1 40 c1 22 2 57 3 78 l1 37 70 0 c49 0 70 4 71 13 1 6 1 45 1 85 0 46 5
72 12 73 6 1 45 2 86 2 l75 2 0 400 0 400 -82 0 c-67 -1 -84 2 -87 15 -2 8 -4
146 -4 305 0 160 -1 298 -1 308 -1 14 -11 17 -71 17 l-70 0 -1 33 c0 17 -1 57
-2 87 l-2 55 -160 0 -160 0 -3 -87 -3 -88 -88 0 -88 0 2 -67 1 -68 -40 -5
c-23 -3 -56 -3 -73 -1 l-33 3 0 324 0 324 -905 0 -905 0 0 -1230z"/>
</g>
</svg>
